<?xml version="1.0" encoding="UTF-8"?>
<mxGraphModel dx="1000" dy="800" grid="1" gridSize="10" guides="1" tooltips="1" connect="1" arrows="1" fold="1" page="1" pageScale="1" pageWidth="850" pageHeight="1100" math="0" shadow="0">
  <root>
    <mxCell id="0" />
    <mxCell id="1" parent="0" />
    <mxCell id="2" value="A" style="ellipse;whiteSpace=wrap;html=1;aspect=fixed;" vertex="1" parent="1">
      <mxGeometry x="220" y="80" width="40" height="40" as="geometry" />
    </mxCell>
    <mxCell id="3" value="B" style="ellipse;whiteSpace=wrap;html=1;aspect=fixed;" vertex="1" parent="1">
      <mxGeometry x="140" y="180" width="40" height="40" as="geometry" />
    </mxCell>
    <mxCell id="4" value="C" style="ellipse;whiteSpace=wrap;html=1;aspect=fixed;" vertex="1" parent="1">
      <mxGeometry x="140" y="320" width="40" height="40" as="geometry" />
    </mxCell>
    <mxCell id="5" value="D" style="ellipse;whiteSpace=wrap;html=1;aspect=fixed;" vertex="1" parent="1">
      <mxGeometry x="220" y="420" width="40" height="40" as="geometry" />
    </mxCell>
    <mxCell id="6" value="E" style="ellipse;whiteSpace=wrap;html=1;aspect=fixed;" vertex="1" parent="1">
      <mxGeometry x="360" y="420" width="40" height="40" as="geometry" />
    </mxCell>
    <mxCell id="7" value="F" style="ellipse;whiteSpace=wrap;html=1;aspect=fixed;" vertex="1" parent="1">
      <mxGeometry x="440" y="320" width="40" height="40" as="geometry" />
    </mxCell>
    <mxCell id="8" value="G" style="ellipse;whiteSpace=wrap;html=1;aspect=fixed;" vertex="1" parent="1">
      <mxGeometry x="360" y="180" width="40" height="40" as="geometry" />
    </mxCell>
    <mxCell id="9" value="" style="endArrow=none;html=1;entryX=0;entryY=0;entryDx=0;entryDy=0;exitX=1;exitY=1;exitDx=0;exitDy=0;" edge="1" parent="1" source="2" target="3">
      <mxGeometry width="50" height="50" relative="1" as="geometry">
        <mxPoint x="280" y="190" as="sourcePoint" />
        <mxPoint x="330" y="140" as="targetPoint" />
      </mxGeometry>
    </mxCell>
    <mxCell id="10" value="" style="endArrow=none;html=1;entryX=0.5;entryY=0;entryDx=0;entryDy=0;exitX=0.5;exitY=1;exitDx=0;exitDy=0;" edge="1" parent="1" source="3" target="4">
      <mxGeometry width="50" height="50" relative="1" as="geometry">
        <mxPoint x="280" y="190" as="sourcePoint" />
        <mxPoint x="330" y="140" as="targetPoint" />
      </mxGeometry>
    </mxCell>
    <mxCell id="11" value="" style="endArrow=none;html=1;entryX=0;entryY=0.5;entryDx=0;entryDy=0;exitX=1;exitY=0.5;exitDx=0;exitDy=0;" edge="1" parent="1" source="4" target="5">
      <mxGeometry width="50" height="50" relative="1" as="geometry">
        <mxPoint x="280" y="190" as="sourcePoint" />
        <mxPoint x="330" y="140" as="targetPoint" />
      </mxGeometry>
    </mxCell>
    <mxCell id="12" value="" style="endArrow=none;html=1;entryX=0;entryY=0.5;entryDx=0;entryDy=0;exitX=1;exitY=0.5;exitDx=0;exitDy=0;" edge="1" parent="1" source="5" target="6">
      <mxGeometry width="50" height="50" relative="1" as="geometry">
        <mxPoint x="280" y="190" as="sourcePoint" />
        <mxPoint x="330" y="140" as="targetPoint" />
      </mxGeometry>
    </mxCell>
    <mxCell id="13" value="" style="endArrow=none;html=1;entryX=0.5;entryY=1;entryDx=0;entryDy=0;exitX=0.5;exitY=0;exitDx=0;exitDy=0;" edge="1" parent="1" source="7" target="8">
      <mxGeometry width="50" height="50" relative="1" as="geometry">
        <mxPoint x="280" y="190" as="sourcePoint" />
        <mxPoint x="330" y="140" as="targetPoint" />
      </mxGeometry>
    </mxCell>
    <mxCell id="14" value="" style="endArrow=none;html=1;entryX=0;entryY=1;entryDx=0;entryDy=0;exitX=1;exitY=0;exitDx=0;exitDy=0;" edge="1" parent="1" source="2" target="8">
      <mxGeometry width="50" height="50" relative="1" as="geometry">
        <mxPoint x="280" y="190" as="sourcePoint" />
        <mxPoint x="330" y="140" as="targetPoint" />
      </mxGeometry>
    </mxCell>
  </root>
</mxGraphModel>